<?xml version="1.0" encoding="UTF-8" standalone="no"?>
<!-- Created with Inkscape (http://www.inkscape.org/) -->

<svg
   xmlns:dc="http://purl.org/dc/elements/1.1/"
   xmlns:cc="http://creativecommons.org/ns#"
   xmlns:rdf="http://www.w3.org/1999/02/22-rdf-syntax-ns#"
   xmlns:svg="http://www.w3.org/2000/svg"
   xmlns="http://www.w3.org/2000/svg"
   xmlns:sodipodi="http://sodipodi.sourceforge.net/DTD/sodipodi-0.dtd"
   xmlns:inkscape="http://www.inkscape.org/namespaces/inkscape"
   width="46.803379mm"
   height="29.591311mm"
   viewBox="0 0 46.803379 29.591311"
   version="1.1"
   id="svg41076"
   inkscape:version="0.92.3 (2405546, 2018-03-11)"
   sodipodi:docname="City University of Hong Kong Logo.svg">
  <defs
     id="defs41070">
    <linearGradient
       x1="0"
       y1="0"
       x2="1"
       y2="0"
       gradientUnits="userSpaceOnUse"
       gradientTransform="matrix(-17.766535,-82.910896,-82.910896,17.766535,611.8974,798.71661)"
       spreadMethod="pad"
       id="linearGradient5651">
      <stop
         style="stop-opacity:1;stop-color:#be1567"
         offset="0"
         id="stop5645" />
      <stop
         style="stop-opacity:1;stop-color:#be1567"
         offset="0.26303688"
         id="stop5647" />
      <stop
         style="stop-opacity:1;stop-color:#4b2043"
         offset="1"
         id="stop5649" />
    </linearGradient>
    <linearGradient
       x1="0"
       y1="0"
       x2="1"
       y2="0"
       gradientUnits="userSpaceOnUse"
       gradientTransform="matrix(-66.318352,-69.819275,-69.819275,66.318352,602.3399,800.33948)"
       spreadMethod="pad"
       id="linearGradient5673">
      <stop
         style="stop-opacity:1;stop-color:#fbccdd"
         offset="0"
         id="stop5667" />
      <stop
         style="stop-opacity:1;stop-color:#be1567"
         offset="0.35"
         id="stop5669" />
      <stop
         style="stop-opacity:1;stop-color:#4b2043"
         offset="1"
         id="stop5671" />
    </linearGradient>
  </defs>
  <sodipodi:namedview
     id="base"
     pagecolor="#ffffff"
     bordercolor="#666666"
     borderopacity="1.0"
     inkscape:pageopacity="0.0"
     inkscape:pageshadow="2"
     inkscape:zoom="1.4"
     inkscape:cx="-205.06072"
     inkscape:cy="10.992002"
     inkscape:document-units="mm"
     inkscape:current-layer="layer1"
     showgrid="false"
     fit-margin-top="0"
     fit-margin-left="0"
     fit-margin-right="0"
     fit-margin-bottom="0"
     inkscape:window-width="1920"
     inkscape:window-height="1018"
     inkscape:window-x="-8"
     inkscape:window-y="-8"
     inkscape:window-maximized="1" />
  <metadata
     id="metadata41073">
    <rdf:RDF>
      <cc:Work
         rdf:about="">
        <dc:format>image/svg+xml</dc:format>
        <dc:type
           rdf:resource="http://purl.org/dc/dcmitype/StillImage" />
        <dc:title></dc:title>
      </cc:Work>
    </rdf:RDF>
  </metadata>
  <g
     inkscape:label="Layer 1"
     inkscape:groupmode="layer"
     id="layer1"
     transform="translate(-31.215873,-124.77726)">
    <g
       transform="matrix(0.35277777,0,0,-0.35277777,-137.97458,406.67633)"
       id="g5633">
      <g
         id="g5635">
        <g
           id="g5641">
          <g
             id="g5643">
            <path
               d="m 593.241,715.271 0.298,-0.065 c 0.175,-0.037 0.405,0.287 0.512,0.703 v 0 l 18.107,70.812 c 0.052,0.197 0.108,0.445 0.108,0.704 v 0 c 0,0.289 -0.061,0.589 -0.121,0.808 v 0 l -3.005,10.851 z"
               style="fill:url(#linearGradient5651);stroke:none"
               id="path5653"
               inkscape:connector-curvature="0" />
          </g>
        </g>
      </g>
    </g>
    <g
       transform="matrix(0.35277777,0,0,-0.35277777,-137.97458,406.67633)"
       id="g5655">
      <g
         id="g5657">
        <g
           id="g5663">
          <g
             id="g5665">
            <path
               d="m 503.88,771.676 c -0.173,-0.048 -0.479,-0.156 -0.678,-0.289 v 0 c -0.223,-0.147 -0.397,-0.335 -0.547,-0.534 v 0 l -22.928,-30.33 c -0.258,-0.343 -0.126,-0.699 0.293,-0.789 v 0 l 24.346,-5.26 c -2.128,0.794 -3.723,1.954 -4.546,2.922 v 0 c -2.172,2.578 -3.121,6.125 -2.597,9.907 v 0 c 1.328,9.606 8.213,13.91 14.584,13.91 v 0 c 3.042,0 5.922,-0.503 8.19,-1.749 v 0 l -0.371,-4.272 h -3.138 l 0.143,1.649 c -1.15,0.717 -5.242,1.366 -8.619,-0.014 v 0 c -3.962,-1.822 -5.668,-6.538 -5.89,-9.706 v 0 c -0.155,-2.259 0.161,-5.211 1.741,-7.35 v 0 c 1.59,-2.149 6.037,-3.792 11.272,-2.035 v 0 c 2.325,0.817 3.365,-1.593 3.365,-1.593 v 0 l -0.24,-0.137 c -3.46,-2.055 -6.772,-2.647 -9.636,-2.452 v 0 l 34.143,-7.377 4.762,8.717 -5.315,16.632 h -2.21 l 0.261,3.006 h 5.663 l 4.552,-14.242 6.302,11.532 c 0,0 1.078,2.71 4.526,2.71 v 0 h 1.154 l -15.889,-28.295 c -0.161,-0.289 -0.322,-0.552 -0.509,-0.773 v 0 l 47.177,-10.193 15.899,83.813 h -10e-4 z m 19.438,-13.417 c 0.109,1.232 1.189,2.233 2.424,2.233 v 0 c 1.231,0 2.149,-1.001 2.036,-2.233 v 0 c -0.102,-1.233 -1.192,-2.233 -2.424,-2.233 v 0 c -1.234,0 -2.147,1 -2.036,2.233 m 7.548,-23.045 c -0.923,1.136 -1.276,2.903 -1.068,5.259 v 0 l 1.514,17.492 4.568,1.107 -0.398,-4.54 h 3.438 l -0.254,-2.92 h -3.434 l -1.005,-11.606 c -0.11,-1.246 0.024,-2.178 0.393,-2.781 v 0 c 0.344,-0.553 0.891,-0.82 1.677,-0.82 v 0 c 2.583,0 2.489,-2.478 2.489,-2.478 v 0 c 0,0 -1.979,-0.446 -3.295,-0.446 v 0 c -2.137,0 -3.697,0.581 -4.625,1.733 m 47.782,2.88 c 1.118,1.032 1.796,3.262 2.092,6.631 v 0 l 0.873,10.078 c 0,0 0.231,2.693 3.162,2.693 v 0 h 0.697 l -1.045,-12.068 c -0.221,-2.526 -0.515,-4.316 -0.893,-5.485 v 0 c -0.39,-1.183 -1.081,-2.338 -2.049,-3.429 v 0 c -1.807,-2.017 -4.427,-3.042 -7.783,-3.042 v 0 c -3.431,0 -5.918,0.907 -7.39,2.685 v 0 c -1.458,1.775 -1.837,4.537 -1.512,8.286 v 0 l 0.87,10.09 h -2.787 l 0.259,2.963 h 7.262 l -0.242,-2.963 -0.798,-9.021 c -0.197,-2.252 -0.201,-3.912 -0.072,-4.928 v 0 c 0.112,-0.959 0.436,-1.761 0.937,-2.376 v 0 c 0.971,-1.189 2.311,-1.768 4.091,-1.768 v 0 c 1.713,0 3.126,0.536 4.328,1.654 m -58.109,16.438 h 6.829 l -1.826,-21.045 c 0,0 -4.489,-0.224 -4.094,4.346 v 0 l 1.188,13.693 h -2.358 z"
               style="fill:url(#linearGradient5673);stroke:none"
               id="path5675"
               inkscape:connector-curvature="0" />
          </g>
        </g>
      </g>
    </g>
  </g>
</svg>
